<?xml version="1.0" encoding="utf-8"?><svg width="64" height="32" viewBox="0 0 64 32" xmlns="http://www.w3.org/2000/svg" xmlns:xlink="http://www.w3.org/1999/xlink"><svg width="32" height="32" viewBox="0 0 32 32" id="exit" xmlns="http://www.w3.org/2000/svg"><title>exit</title><path d="M24 20v-4H14v-4h10V8l6 6zm-2-2v8H12v6L0 26V0h22v10h-2V2H4l8 4v18h8v-6z"/></svg><svg width="32" height="32" viewBox="0 0 32 32" id="flickr2" x="32" xmlns="http://www.w3.org/2000/svg"><title>flickr2</title><path d="M25 13c-2.206 0-4 1.794-4 4s1.794 4 4 4 4-1.794 4-4-1.794-4-4-4zm0-3a7 7 0 1 1 0 14 7 7 0 0 1 0-14zM0 17a7 7 0 1 1 14 0 7 7 0 0 1-14 0z"/></svg></svg>